<svg xmlns="http://www.w3.org/2000/svg" version="1.1" xmlns:xlink="http://www.w3.org/1999/xlink" xmlns:svgjs="http://svgjs.dev/svgjs" width="1000" height="937" viewBox="0 0 1000 937"><g transform="matrix(1,0,0,1,0,0)"><svg viewBox="0 0 384 360" data-background-color="#ffffff" preserveAspectRatio="xMidYMid meet" height="937" width="1000" xmlns="http://www.w3.org/2000/svg" xmlns:xlink="http://www.w3.org/1999/xlink"><g id="tight-bounds" transform="matrix(1,0,0,1,0,0)"><svg viewBox="0 0 384 360" height="360" width="384"><g><svg></svg></g><g><svg viewBox="0 0 384 360" height="360" width="384"><g><path d="M362.354 145.441v-42.24c0-21.12-19.163-38.402-42.587-38.402h-93.208c-15.198 0-28.337-8.831-34.559-21.646-6.222 12.81-19.36 21.646-34.559 21.646h-93.208c-23.424 0-42.587 17.282-42.587 38.402v42.24c0 15.198-8.831 28.337-21.646 34.559 12.81 6.222 21.646 19.36 21.646 34.559v42.24c0 21.12 19.163 38.402 42.587 38.402h93.208c15.198 0 28.337 8.831 34.559 21.646 6.222-12.81 19.36-21.646 34.559-21.646h93.208c23.424 0 42.587-17.282 42.587-38.402v-42.24c0-15.198 8.831-28.337 21.646-34.559-12.81-6.222-21.646-19.36-21.646-34.559z" fill="#6c696e" fill-rule="nonzero" stroke="none" stroke-width="1" stroke-linecap="butt" stroke-linejoin="miter" stroke-miterlimit="10" stroke-dasharray="" stroke-dashoffset="0" font-family="none" font-weight="none" font-size="none" text-anchor="none" style="mix-blend-mode: normal" data-fill-palette-color="tertiary"></path></g><g transform="matrix(1,0,0,1,132.75,99)"><svg viewBox="0 0 118.5 162" height="162" width="118.5"><g><svg viewBox="0 0 118.5 162" height="162" width="118.5"><g><svg viewBox="0 0 118.5 162" height="162" width="118.5"><g><svg viewBox="0 0 118.5 162" height="162" width="118.5"><g id="textblocktransform"><svg viewBox="0 0 118.5 162" height="162" width="118.5" id="textblock"><g><svg viewBox="0 0 118.5 162" height="162" width="118.5"><g transform="matrix(1,0,0,1,0,0)"><svg width="118.5" viewBox="1.8 -26.4 19.75 27" height="162" data-palette-color="#ffffff"><path d="M12 0.6L12 0.6Q8.4 0.6 5.98-0.78 3.55-2.15 1.8-4.45L1.8-4.45 4.65-6.75Q6.15-4.85 8-3.83 9.85-2.8 12.3-2.8L12.3-2.8Q14.85-2.8 16.28-3.9 17.7-5 17.7-7L17.7-7Q17.7-8.5 16.73-9.58 15.75-10.65 13.2-11.05L13.2-11.05 11.15-11.35Q9.35-11.6 7.85-12.13 6.35-12.65 5.23-13.53 4.1-14.4 3.48-15.7 2.85-17 2.85-18.8L2.85-18.8Q2.85-20.7 3.55-22.13 4.25-23.55 5.48-24.5 6.7-25.45 8.4-25.93 10.1-26.4 12.05-26.4L12.05-26.4Q15.2-26.4 17.32-25.3 19.45-24.2 21.05-22.25L21.05-22.25 18.4-19.85Q17.55-21.05 15.9-22.03 14.25-23 11.75-23L11.75-23Q9.25-23 7.98-21.93 6.7-20.85 6.7-19L6.7-19Q6.7-17.1 7.98-16.25 9.25-15.4 11.65-15L11.65-15 13.65-14.7Q17.95-14.05 19.75-12.23 21.55-10.4 21.55-7.45L21.55-7.45Q21.55-3.7 19-1.55 16.45 0.6 12 0.6Z" opacity="1" transform="matrix(1,0,0,1,0,0)" fill="#ffffff" class="wordmark-text-0" data-fill-palette-color="quaternary" id="text-0"></path></svg></g></svg></g></svg></g></svg></g></svg></g></svg></g></svg></g></svg></g><defs></defs></svg><rect width="384" height="360" fill="none" stroke="none" visibility="hidden"></rect></g></svg></g></svg>